PathFileType	4	(X/Y/Z)	C:\Users\WrightLab\Desktop\Jo\P5V23.trc
DataRate	CameraRate	NumFrames	NumMarkers	Units	OrigDataRate	OrigDataStartFrame	OrigNumFrames
100.00	100.00	       21	19	mm	100.00	555	       739
Frame#	Time	Headset_Front			Headset_Back			Headset_Left			Headset_Right			Left_Shoulder			Right_Shoulder			Sternum			C7			Left Elbow			Right Elbow			Left Wrist			Right Wrist			Left ASIS			Right ASIS			S2			Left Knee			Right Knee			Left Ankle			Right Ankle			
		X1	Y1	Z1	X2	Y2	Z2	X3	Y3	Z3	X4	Y4	Z4	X5	Y5	Z5	X6	Y6	Z6	X7	Y7	Z7	X8	Y8	Z8	X9	Y9	Z9	X10	Y10	Z10	X11	Y11	Z11	X12	Y12	Z12	X13	Y13	Z13	X14	Y14	Z14	X15	Y15	Z15	X16	Y16	Z16	X17	Y17	Z17	X18	Y18	Z18	X19	Y19	Z19	

555	5.540	-424.66068	1417.91553	23.99797							-505.84634	1522.61169	-44.53021	-134.28613	1536.59106	-229.90375	-516.84344	1417.40417	-143.66553	-291.69943	1299.40247	-148.90810	-377.45795	1532.03064	-305.18610	-131.25972	1321.02234	-167.41432	-656.02527	1174.93311	-99.56987	-17.27871	1300.16528	-332.17148	-692.14636	1027.09192	103.21149	-102.27007	946.90649	-222.36063	-380.84006	915.01239	-150.42184	-275.14581	1011.97827	-434.84467	-72.40505	505.48517	-230.61656	-442.10251	490.68152	-228.76585	-53.24287	93.90138	-331.63898	-381.60529	92.03780	-289.93967	
556	5.550	-425.65970	1417.34521	23.89349							-505.73105	1522.78491	-45.31935	-135.54410	1536.49561	-229.89178	-517.49438	1417.27539	-144.00401	-292.79666	1299.19348	-149.41054	-378.65475	1532.08374	-305.42633	-131.95302	1321.01086	-167.05727	-656.12903	1173.81201	-99.62804	-17.78452	1300.83521	-332.07004	-692.42822	1026.34827	102.97090	-103.13448	946.90637	-222.36929	-381.65802	915.41577	-150.63531	-275.70486	1012.23309	-434.94327	-72.80907	505.34921	-230.64378	-442.99020	490.79532	-228.31836	-53.32917	94.14944	-331.55521	-381.65381	92.06244	-289.95831	
557	5.560	-426.97031	1417.29651	23.98379							-506.72592	1522.79211	-45.50534	-136.33995	1536.62683	-230.21692	-518.68311	1416.49915	-143.97137	-293.43829	1299.19958	-149.27769	-379.80704	1531.75037	-305.31091	-133.14413	1321.45593	-167.12518	-657.07471	1173.97192	-99.96181	-18.63766	1301.26050	-332.20837	-692.88208	1025.73511	102.64465	-103.14115	947.17865	-222.48669	-382.22934	915.39850	-150.73705	-276.48889	1012.19794	-435.04083	-74.53638	504.91525	-231.34158	-443.20557	490.61411	-228.65601	-53.34753	94.15343	-331.54791	-381.64667	92.05606	-289.94159	
558	5.570	-428.08096	1416.40039	22.05475							-507.87601	1522.06213	-44.62490	-137.56398	1536.74915	-230.28665	-519.51343	1415.61707	-144.38530	-294.07639	1299.08484	-149.30235	-381.09137	1531.48535	-305.88507	-134.15230	1321.54980	-167.18700	-657.64386	1173.78235	-99.47512	-19.03658	1301.53174	-332.21082	-693.16528	1024.90747	102.73792	-103.88478	947.05902	-222.09769	-382.86118	915.45367	-150.89705	-276.93268	1012.22913	-435.27722	-74.89801	505.09329	-231.35992	-443.87302	490.16562	-228.96962	-53.28918	93.91182	-331.62036	-381.65292	92.01514	-289.98450	
559	5.580	-429.23932	1416.67407	21.68696							-510.68289	1522.41516	-45.46667	-138.90839	1536.81396	-230.71574	-519.97540	1415.58313	-144.19270	-294.78680	1298.84290	-149.72418	-382.24139	1531.42249	-306.42361	-134.82787	1321.78113	-167.36438	-657.61090	1172.79871	-98.26454	-19.52834	1302.11865	-332.19977	-693.81934	1024.50464	102.69115	-104.34776	947.45807	-222.41953	-382.78027	915.47205	-151.50026	-277.32666	1012.01642	-435.44028	-75.58029	505.08655	-231.38843	-444.38116	490.52582	-229.15071	-53.38340	94.15366	-331.53784	-381.65665	92.02881	-289.96732	
560	5.590	-429.99521	1415.96948	20.60521							-511.46490	1522.12732	-45.83884	-139.77373	1537.30896	-230.86696	-520.70972	1415.19055	-144.20207	-295.43515	1298.78723	-150.15840	-383.06696	1531.19165	-306.19357	-135.97795	1322.07495	-167.82144	-657.89691	1172.58032	-98.02298	-19.99261	1302.43188	-332.45786	-693.81372	1023.19550	103.46391	-104.57439	948.53107	-222.46786	-382.92712	915.40118	-151.63155	-277.66077	1012.02032	-435.40985	-76.11130	504.99277	-231.94142	-445.05399	490.24908	-228.91466	-53.37767	94.15324	-331.53967	-381.66507	92.02935	-289.97678	
561	5.600	-430.59332	1416.39429	22.28921							-512.46375	1521.69116	-45.89127	-140.79814	1537.78186	-230.94916	-521.46173	1414.61475	-144.20659	-296.17383	1298.83643	-150.12685	-384.20068	1531.06689	-305.98508	-136.52817	1322.15601	-167.96117	-658.59808	1172.25146	-97.46249	-21.05282	1302.93091	-332.45551	-694.13910	1022.33252	103.79695	-105.47893	948.95966	-223.30614	-383.04410	915.36609	-151.74013	-278.21381	1012.40747	-435.41309	-76.37468	504.97391	-231.82597	-445.66577	490.38760	-229.02846	-53.41025	94.14820	-331.53342	-381.68646	92.01681	-289.98593	
562	5.610	-431.93201	1416.82800	23.94426							-512.15015	1521.36389	-46.59428	-141.40419	1537.93579	-230.96587	-522.14984	1414.24719	-144.47514	-297.08643	1298.49707	-150.62090	-385.35416	1530.66406	-306.12881	-137.28845	1322.53076	-168.40579	-658.42780	1171.32080	-96.23145	-21.71426	1303.83997	-332.51456	-694.19562	1021.73145	104.47005	-106.54066	949.19904	-223.73657	-383.62943	914.96875	-151.87093	-278.56302	1012.31433	-435.19525	-76.41619	504.95334	-231.83420	-446.13409	490.08914	-229.07571	-53.40957	94.16463	-331.52451	-381.79364	91.84980	-289.77731	
563	5.620	-432.88022	1416.55774	23.31166							-513.15814	1521.07800	-46.34761	-143.41270	1538.31238	-231.74792	-522.90155	1414.11047	-144.77411	-297.94522	1298.58252	-151.00368	-386.75302	1530.66272	-306.54288	-137.74826	1323.33936	-168.84938	-658.77966	1170.66663	-95.97028	-22.46865	1304.26575	-332.99463	-694.24316	1020.97198	105.12643	-106.78345	949.17401	-223.81039	-383.84659	915.18591	-152.17815	-279.02353	1012.19891	-435.25336	-76.90910	504.59106	-232.03174	-446.27841	490.11804	-229.14554	-53.40115	94.17599	-331.52054	-381.79367	91.84233	-289.77618	
564	5.630	-433.73499	1415.75574	22.30547							-515.53564	1520.84827	-46.27758	-144.33792	1538.77710	-232.36646	-523.64929	1413.76233	-144.12831	-298.20438	1298.49524	-151.24097	-387.87729	1530.21741	-306.68869	-138.54472	1323.75916	-169.20033	-659.28656	1170.35083	-95.86188	-23.55690	1304.93481	-335.00040	-694.85938	1020.52228	105.39731	-107.58575	949.09808	-224.09785	-384.10150	915.10541	-152.21956	-279.29993	1012.10529	-435.36740	-77.60196	504.53580	-231.86104	-447.12070	490.32712	-227.64340	-53.43303	94.17860	-331.51028	-381.82462	91.85320	-289.78357	
565	5.640	-434.73672	1415.55078	21.20220							-516.28345	1520.45496	-46.21907	-145.16539	1539.02161	-232.79108	-524.44385	1413.27502	-144.06781	-298.45367	1298.42188	-151.47072	-389.01892	1530.32166	-306.87106	-138.96030	1323.87878	-169.41255	-659.82214	1169.95667	-95.66959	-23.29615	1305.36804	-333.95181	-695.24585	1020.03387	105.51167	-107.79778	949.29022	-224.18687	-384.51981	914.77008	-152.73918	-280.06985	1012.29834	-435.76379	-78.05479	504.61954	-232.00365	-447.37067	489.96985	-228.15695	-53.43344	94.20925	-331.49319	-381.78778	91.84709	-289.75461	
566	5.650	-435.71194	1415.09082	21.26548							-517.79346	1520.70837	-46.80371	-146.20712	1539.37610	-232.89813	-525.17981	1412.70703	-144.53331	-299.67029	1298.47266	-152.08578	-389.97601	1529.82690	-306.98007	-139.53831	1324.02429	-169.37294	-660.19971	1169.37427	-94.36527	-24.63557	1306.39075	-335.12442	-695.42218	1019.35822	105.78218	-108.42467	949.42078	-224.28337	-384.74203	914.61523	-152.90210	-280.29956	1012.27802	-435.74728	-78.93211	504.50122	-232.74585	-447.87341	490.29471	-228.36932	-53.38784	94.25991	-331.47778	-381.77814	91.83038	-289.75854	
567	5.660	-436.41891	1414.81995	21.01080							-518.51910	1520.39294	-46.67316	-147.35950	1539.50659	-233.56554	-526.21307	1411.93616	-144.14474	-299.85376	1298.49902	-151.81056	-390.93823	1529.41309	-306.91095	-140.92296	1324.56250	-169.94855	-660.60956	1169.31982	-94.21902	-24.86752	1306.86646	-334.89566	-694.88220	1018.47351	107.19217	-108.74582	950.01068	-224.63808	-384.57150	914.94476	-154.23045	-280.92166	1012.62128	-436.28003	-79.12857	504.57101	-232.79686	-448.12354	490.39981	-228.40739	-53.40747	94.28996	-331.45572	-381.77936	91.86832	-289.73911	
568	5.670	-436.79938	1414.10046	20.12532							-517.93744	1519.78442	-46.47499	-148.94818	1539.85535	-233.45757	-526.72235	1412.01392	-144.34502	-300.52823	1298.26135	-152.19769	-392.64066	1529.83154	-307.54382	-141.77155	1325.14185	-170.77145	-661.31152	1168.93396	-93.96180	-25.44079	1307.38953	-335.00958	-695.25568	1018.12054	107.81862	-108.92079	950.40765	-225.27350	-384.66879	914.90265	-154.31839	-281.15533	1012.60687	-436.26208	-79.32994	504.58990	-232.92128	-448.44855	490.37982	-228.45653	-53.40620	94.32037	-331.43924	-381.76990	91.85361	-289.74875	
569	5.680	-438.10199	1414.71191	21.80374							-518.85724	1519.49988	-46.52744	-149.88371	1539.82019	-233.88812				-300.96637	1298.72314	-152.35237	-393.75418	1529.27368	-307.78909	-142.10516	1325.08557	-171.30865	-660.87909	1167.84668	-93.42563	-26.89252	1307.26831	-336.03732	-696.52332	1017.91064	107.87611	-109.51356	950.61945	-225.82088	-385.14395	914.66644	-154.52519	-281.55441	1012.48743	-436.54828	-79.58923	505.07861	-233.26227	-448.49506	490.38049	-228.48233	-53.42751	94.53450	-331.31079	-381.75989	91.83311	-289.73456	
570	5.690	-438.99597	1414.50989	21.42443							-521.49854	1519.27051	-46.63942	-150.94301	1540.19592	-233.86591	-527.99286	1411.43420	-144.35045	-302.13162	1299.17603	-152.93613	-394.70221	1529.13721	-307.93631	-142.34279	1325.55945	-171.26547	-661.68420	1167.99744	-93.42677	-27.26051	1307.51648	-337.18973	-696.99939	1017.43140	108.21632	-109.52657	950.91931	-226.35059	-385.84650	914.12994	-155.11609	-282.02728	1012.48566	-436.68637	-79.61081	505.09476	-233.27888	-448.53925	490.36453	-228.50224	-53.38315	94.60619	-331.28336	-381.74530	91.80577	-289.73270	
571	5.700	-439.51651	1413.98401	19.65184							-522.34735	1518.89441	-46.85964	-151.88942	1540.25977	-235.68599	-529.02295	1411.03113	-144.16278	-303.15472	1298.82227	-153.53369	-395.74918	1528.67273	-307.56107	-142.92587	1325.56421	-171.74113	-661.90680	1167.22083	-92.03258	-27.91743	1307.92236	-337.38324	-697.36237	1016.99969	109.46649	-109.85445	951.30023	-226.43947	-385.88629	914.12140	-155.13728	-282.34888	1012.32898	-436.65396	-79.56268	505.02597	-234.05635	-448.82996	490.19138	-228.42435	-53.80643	94.52180	-330.91608	-381.52209	91.45280	-289.47363	
572	5.710	-440.67529	1413.59021	21.09878							-523.07617	1518.50317	-47.44221	-153.10201	1540.52161	-235.20152	-529.78784	1410.68262	-144.33289	-304.06949	1298.77490	-154.02597	-396.65961	1528.49573	-307.86935	-143.33768	1326.07520	-172.29008	-662.24384	1167.35046	-92.52859	-29.17848	1309.23645	-337.37354	-697.68994	1016.91376	109.58814	-109.90182	951.91968	-227.06880	-385.40707	913.71991	-155.79965	-282.58054	1012.39868	-437.26709	-79.52444	505.05911	-234.05527	-449.06464	489.90448	-228.34190	-53.15655	94.40070	-331.45993	-381.78336	91.79142	-289.77161	
573	5.720	-440.98593	1413.35229	20.02404							-523.96924	1518.04102	-47.02010	-154.49591	1540.51843	-236.09505	-530.45618	1410.81628	-144.60513	-304.38342	1298.56079	-154.33900	-398.37589	1528.35742	-308.49869	-144.35297	1326.29260	-173.03030	-662.12653	1166.09302	-91.76220	-29.84160	1309.63062	-338.75235	-698.16077	1017.00378	109.93221	-110.12891	952.01398	-227.88463	-385.43643	913.71625	-155.81595	-283.23123	1012.44604	-438.11884	-79.27915	505.16629	-234.07196	-449.08942	489.89474	-228.35286	-53.34165	94.73639	-331.22281	-381.53723	91.40585	-289.50375	
574	5.730	-441.72150	1413.36694	19.57974							-523.51807	1517.58313	-47.15789	-155.50441	1540.91406	-237.11203	-531.24323	1410.26575	-144.38989	-304.93091	1298.87939	-154.80986	-399.43384	1528.11914	-308.56500	-144.99406	1325.94507	-173.74635	-663.36298	1166.51074	-91.94433	-31.79237	1310.94312	-339.36584	-699.02496	1016.93909	110.44693	-110.95493	952.16150	-229.11913	-385.10110	913.50275	-157.69102	-284.02921	1012.69757	-438.74951	-78.51109	505.62851	-234.31828	-449.19513	489.74945	-228.61441	-53.83119	94.75791	-330.87756	-381.50803	91.41389	-289.48370	
575	5.740	-442.91006	1413.20361	20.61713							-524.29761	1517.29004	-47.14128	-156.25800	1541.37805	-237.35468	-531.93799	1409.87280	-145.04582	-305.95193	1298.64026	-154.83913	-400.32574	1527.80884	-308.36243	-146.34721	1326.38867	-174.20522	-663.29041	1164.93835	-91.17648	-32.13349	1311.43359	-342.10403	-699.59613	1017.06451	110.47001	-110.61242	952.38153	-230.20564	-385.11905	913.49036	-157.70642	-284.46167	1012.69312	-438.99426	-78.13262	506.21750	-234.53604	-449.61319	489.39011	-228.84625	-53.95147	94.93009	-330.90631	-381.52139	91.40513	-289.49371	
